<?xml version="1.0" standalone="no"?>
<!DOCTYPE svg PUBLIC "-//W3C//DTD SVG 20010904//EN"
 "http://www.w3.org/TR/2001/REC-SVG-20010904/DTD/svg10.dtd">
<svg version="1.0" xmlns="http://www.w3.org/2000/svg"
 width="128.000000pt" height="128.000000pt" viewBox="0 0 128.000000 128.000000"
 preserveAspectRatio="xMidYMid meet">

<g transform="translate(0.000000,128.000000) scale(0.100000,-0.100000)"
fill="#000000" stroke="none">
<path d="M0 640 l0 -640 640 0 640 0 0 640 0 640 -640 0 -640 0 0 -640z m753
404 l108 -217 -180 -182 c-168 -168 -181 -184 -181 -218 0 -30 9 -46 54 -94
l54 -58 -59 -60 -59 -60 -136 136 -136 136 99 196 98 197 42 -42 43 -42 0 127
0 127 67 135 c37 74 70 135 73 135 3 0 54 -97 113 -216z m95 -821 l-208 -208
-60 60 -60 60 125 125 c160 161 164 171 81 258 l-57 60 103 107 102 107 90
-181 91 -181 -207 -207z"/>
</g>
</svg>
